<?xml version="1.0" encoding="utf-8"?>
<!-- Generator: Adobe Illustrator 26.0.0, SVG Export Plug-In . SVG Version: 6.00 Build 0)  -->
<svg version="1.1" id="Layer_1" xmlns="http://www.w3.org/2000/svg" xmlns:xlink="http://www.w3.org/1999/xlink" x="0px" y="0px"
	 viewBox="0 0 3541 1487" style="enable-background:new 0 0 3541 1487;" xml:space="preserve">
<style type="text/css">
	.st0{fill:#0052D4;}
</style>
<g>
	<path class="st0" d="M278.5,94.8H159.1C71.3,94.8,0,166.1,0,253.9v1074c0,87.9,71.3,159.1,159.1,159.1h3222.7
		c87.9,0,159.1-71.2,159.1-159.1v-1074c0-87.9-71.2-159.1-159.1-159.1h-875.3v79.6h875.3c43.9,0,79.6,35.6,79.6,79.6v1074
		c0,43.9-35.6,79.6-79.6,79.6H159.1c-43.9,0-79.6-35.6-79.6-79.6V254c0-43.9,35.6-79.6,79.6-79.6h119.4V94.8z"/>
	<path class="st0" d="M558.6,216.1c10.2,0,18.5-8.6,18.5-18.8v-62.4h56c44.2,0,69.4-30.5,69.4-66.5S677.7,1.9,633.1,1.9h-73.5
		c-12.7,0-19.7,7-19.7,19.7v175.7C539.8,207.5,548.1,216.1,558.6,216.1z M664.3,68.4c0,20.4-15.3,33.7-36.3,33.7h-50.9V34.7H628
		C649,34.7,664.3,48,664.3,68.4z"/>
	<path class="st0" d="M797.2,218c49.3,0,79.3-36.6,79.3-80.8c0-43.9-29.9-80.5-79.3-80.5c-48.7,0-78.9,36.6-78.9,80.5
		C718.3,181.4,748.5,218,797.2,218z M797.2,188.4c-28.3,0-44.2-23.9-44.2-51.2c0-27,15.9-50.9,44.2-50.9c28.6,0,44.6,23.9,44.6,50.9
		C841.8,164.5,825.9,188.4,797.2,188.4z"/>
	<path class="st0" d="M1061.8,216.1c10.2,0,19.1-6.7,22-16.2l37.2-120c0.3-1.3,0.6-3.2,0.6-4.8c0-9.2-7.3-16.5-16.2-16.5
		c-7.6,0-14,5.1-15.9,11.8l-29.6,101.8L1027.1,72c-2.6-8-9.9-13.4-18.5-13.4S992.7,64,990.1,72l-32.8,100.2L927.8,70.3
		c-1.9-6.7-8.3-11.8-15.9-11.8c-8.9,0-16.2,7.3-16.2,16.5c0,1.6,0.3,3.5,0.6,4.8l37.2,120c2.9,9.5,11.8,16.2,22,16.2
		s19.1-6.7,22-16.2l31.2-98.3l31.2,98.3C1042.7,209.4,1051.6,216.1,1061.8,216.1z"/>
	<path class="st0" d="M1140.7,137.1c0,48.7,34.4,80.8,80.5,80.8c19.4,0,37.9-4.8,53.2-15c3.5-2.5,6-6.4,6-11.1
		c0-7.3-6-13.4-13.4-13.4c-2.9,0-5.4,0.6-7.3,1.9c-10.8,6.7-23.9,10.2-35,10.2c-29,0-46.5-19.1-49-42.3h99
		c12.7,0,19.7-5.7,19.7-15.6c0-40.7-29.6-76.1-75.8-76.1C1173.2,56.6,1140.7,92.6,1140.7,137.1z M1218.7,84
		c30.2,0,42.7,22.6,43.3,40.7h-86.6C1177,106,1190.1,84,1218.7,84z"/>
	<path class="st0" d="M1399.4,57.9c-2.9,0-5.1,0.6-8.9,1.9c-9.9,3.2-21.3,12.4-29.6,23.2v-7.6c0-9.2-7.6-16.9-16.9-16.9
		c-8.9,0-16.6,7.6-16.6,16.9v123.8c0,9.2,7.6,16.9,16.9,16.9c8.9,0,16.6-7.6,16.6-16.9v-89.7c6.7-10.8,23.6-18.5,35-20
		c11.5-1.6,17.2-8.3,17.2-15.9C1413.1,65.2,1408.9,57.9,1399.4,57.9z"/>
	<path class="st0" d="M1428.2,137.1c0,48.7,34.4,80.8,80.5,80.8c19.4,0,37.9-4.8,53.2-15c3.5-2.5,6-6.4,6-11.1
		c0-7.3-6-13.4-13.4-13.4c-2.9,0-5.4,0.6-7.3,1.9c-10.8,6.7-23.9,10.2-35,10.2c-29,0-46.5-19.1-49-42.3h99
		c12.7,0,19.7-5.7,19.7-15.6c0-40.7-29.6-76.1-75.8-76.1C1460.7,56.6,1428.2,92.6,1428.2,137.1z M1506.2,84
		c30.2,0,42.7,22.6,43.3,40.7h-86.6C1464.5,106,1477.6,84,1506.2,84z"/>
	<path class="st0" d="M1739.7,0c-8.9,0-16.6,7.6-16.6,16.9v64.9c-12.4-16.2-30.2-25.1-49.3-25.1c-39.8,0-68.4,31.2-68.4,80.8
		c0,50.6,29,80.5,68.4,80.5c19.7,0,37.6-9.5,49.3-24.5v5.7c0,9.2,7.6,16.9,16.6,16.9c9.2,0,16.9-7.6,16.9-16.9V16.9
		C1756.6,7.6,1749,0,1739.7,0z M1683.4,188.4c-26.4,0-43.3-21.3-43.3-50.9c0-29.9,16.9-51.2,43.3-51.2c15.9,0,32.2,9.2,39.8,20.7v61
		C1715.6,179.5,1699.3,188.4,1683.4,188.4z"/>
	<path class="st0" d="M1902.3,214.2h87.5c39.8,0,61.7-24.5,61.7-57.3c0-26.1-18.5-48.7-41.1-52.2c19.7-4.1,36.9-22,36.9-48.7
		c0-29.9-21.6-54.1-60.5-54.1h-84.7c-12.7,0-19.7,7-19.7,19.7v172.8C1882.6,207.2,1889.6,214.2,1902.3,214.2z M1919.9,89.7v-55h59.5
		c19.1,0,29.9,11.8,29.9,27.7s-10.8,27.4-29.9,27.4h-59.5V89.7z M1919.9,181.4v-58.9h61.1c21.3,0,32.5,13.4,32.5,29.3
		c0,18.5-12.1,29.6-32.5,29.6H1919.9z"/>
	<path class="st0" d="M2081.7,261.6c0,8,6.1,14,13.7,14.6c1.9,0.3,3.5,0.3,4.8,0.3c23.9-0.3,42.3-8.6,52.8-34.7l65.6-160.4
		c0.6-1.9,1.3-4.1,1.3-6.4c0-9.2-7.3-16.5-16.6-16.5c-7,0-13.4,4.5-15.6,10.5l-41.4,106.6L2104.9,69c-2.2-6-8.6-10.5-15.6-10.5
		c-8.9,0-16.2,7.3-16.2,16.5c0,2.2,0.3,4.1,0.9,6l54.8,134.9l-7.6,17.5c-4.5,10.2-11.5,13.4-22,13.4h-1.6
		C2089.3,246.9,2081.7,253.3,2081.7,261.6z"/>
	<path class="st0" d="M1304.4,1168.8c-3,0-5.9-0.6-8.7-1.7c-2.8-1.1-5.2-2.8-7.3-4.9l-260.2-258.1c-2.4-2-4.3-4.5-5.6-7.2
		c-1.3-2.8-2.1-5.8-2.2-8.9c-0.1-3.1,0.4-6.1,1.5-9s2.9-5.5,5-7.6c2.2-2.2,4.8-3.9,7.7-5s6-1.6,9.1-1.5s6.1,0.9,8.9,2.2
		s5.3,3.2,7.3,5.6l260.3,258c3.2,3.1,5.3,7.1,6.2,11.4c0.9,4.3,0.4,8.8-1.2,12.9c-1.7,4.1-4.6,7.6-8.3,10
		C1313.2,1167.5,1308.9,1168.8,1304.4,1168.8z"/>
	<path class="st0" d="M1084.4,1059.1L978.1,953.8c-4.2-4.2-10-6.5-15.9-6.5c-6,0-11.7,2.4-15.9,6.5c-4.2,4.2-6.6,9.9-6.6,15.8
		c0,5.9,2.4,11.6,6.6,15.8l106.7,105.1c3.7,3.7,5.8,8.7,5.8,13.9c0,2.6-0.5,5.1-1.5,7.5s-2.5,4.5-4.3,6.3s-4,3.3-6.4,4.3
		s-5,1.5-7.6,1.5c-6,0-11.7,2.3-15.9,6.5c-4.2,4.2-6.6,9.9-6.6,15.8s2.4,11.6,6.6,15.8s9.9,6.5,15.9,6.5c12.8,0,25.3-3.8,36-10.9
		s18.9-17.1,23.8-28.8c4.9-11.7,6.2-24.7,3.7-37.1c-2.5-12.5-8.7-23.9-17.7-32.9h-0.4V1059.1z"/>
	<path class="st0" d="M1335.9,891.7c-6,0-11.7,2.4-15.9,6.5c-4.2,4.2-6.6,9.9-6.6,15.8c0,3.9-1.2,7.7-3.3,10.9
		c-2.2,3.2-5.2,5.8-8.8,7.3c-3.6,1.5-7.6,1.9-11.4,1.2s-7.4-2.5-10.2-5.2l-137.8-136.7c-4.3-3.9-9.9-5.9-15.7-5.8
		c-5.8,0.1-11.3,2.5-15.4,6.5s-6.5,9.5-6.6,15.2c-0.2,5.7,1.9,11.3,5.8,15.5l137.9,136.8c9.1,9,20.7,15.1,33.3,17.6
		c12.6,2.5,25.7,1.1,37.6-3.8c11.9-4.9,22-13.2,29-23.9c7.1-10.6,10.8-23.1,10.7-35.9c-0.1-5.9-2.5-11.5-6.7-15.7
		C1347.6,893.9,1341.9,891.6,1335.9,891.7z"/>
	<path class="st0" d="M999.8,850.5c23.4,0,42.3-18.8,42.3-42s-18.9-42-42.3-42c-23.4,0-42.3,18.8-42.3,42
		C957.4,831.7,976.4,850.5,999.8,850.5z"/>
	<path class="st0" d="M1147.5,703.9c23.4,0,42.3-18.8,42.3-42s-18.9-42-42.3-42s-42.3,18.8-42.3,42
		C1105.2,685.1,1124.2,703.9,1147.5,703.9z"/>
	<path class="st0" d="M1339.6,706.6c-4.3-3.9-9.9-5.9-15.7-5.8c-5.8,0.1-11.3,2.5-15.4,6.5s-6.5,9.5-6.6,15.2
		c-0.2,5.7,1.9,11.3,5.8,15.5c3.7,3.7,5.8,8.7,5.8,13.9s-2.1,10.2-5.8,13.9c-3.7,3.7-8.8,5.8-14,5.8s-10.3-2.1-14-5.8L1224,710
		c-2.1-2.1-4.6-3.7-7.3-4.8c-2.7-1.1-5.7-1.7-8.6-1.7s-5.9,0.6-8.6,1.7c-2.7,1.1-5.2,2.8-7.3,4.8c-2.1,2.1-3.8,4.5-4.9,7.2
		s-1.7,5.6-1.7,8.5s0.6,5.8,1.7,8.5s2.8,5.2,4.9,7.2l55.7,55.2c12.2,11.8,28.6,18.3,45.6,18.2s33.3-6.9,45.4-18.8
		c12-11.9,18.9-28.1,19-45s-6.4-33.1-18.3-45.3V706.6z"/>
	<path class="st0" d="M1130.3,554.7l-21.9-22.3c-51.9-51.4-122.3-80.2-195.7-80.2c-73.4,0.1-143.7,29-195.5,80.5
		s-80.9,121.3-80.9,194c0.1,72.8,29.3,142.5,81.2,193.9l171.4,170c3.7,3.7,5.7,8.7,5.7,13.8c0,2.6-0.5,5.1-1.5,7.5s-2.5,4.5-4.4,6.3
		c-1.8,1.8-4,3.3-6.4,4.3s-5,1.5-7.6,1.5s-5.2-0.5-7.6-1.5s-4.6-2.4-6.4-4.3l-113.6-112.7l-1.1-1c-12.6-10.3-28.6-15.6-44.9-14.7
		c-16.3,0.9-31.7,7.8-43,19.4c-11.4,11.6-17.9,27-18.3,43.2c-0.4,16.2,5.4,31.9,16.1,44l66.2,65.6c4.1,4.1,9.8,6.5,15.6,6.6
		c4.5,0,8.8-1.3,12.5-3.8s6.6-6,8.3-10.1s2.1-8.6,1.3-12.9c-0.9-4.3-3-8.3-6.2-11.4l-66.4-65.6c-3.7-3.7-5.8-8.7-5.8-13.8
		c0-5.2,2.1-10.2,5.8-13.8c3.8-3.6,8.8-5.6,14-5.6s10.3,2,14,5.6L829,1150.1c1,1.1,2.2,2.1,3.5,2.9c12.3,10.8,28.3,16.5,44.6,16
		c16.4-0.5,31.9-7.3,43.5-18.8c6-6,10.8-13,14.1-20.8s4.9-16.2,4.9-24.6s-1.7-16.8-4.9-24.6c-3.3-7.8-8-14.9-14.1-20.8L749.1,889.1
		c-43.4-43.1-67.8-101.4-67.8-162.3s24.4-119.3,67.8-162.3s102.3-67.2,163.7-67.2s120.3,24.2,163.7,67.2l21.5,22.3
		c2.1,2.1,4.6,3.7,7.3,4.8c2.7,1.1,5.7,1.7,8.6,1.7c3,0,5.9-0.6,8.6-1.7c2.7-1.1,5.2-2.8,7.3-4.8c2.2-2.1,3.9-4.5,5.2-7.3
		c1.2-2.7,1.9-5.7,1.9-8.7s-0.5-6-1.7-8.7C1134.1,559.4,1132.5,556.8,1130.3,554.7z"/>
	<path class="st0" d="M1559.4,1084c-0.1-4,0.7-8,2.1-11.8c1.5-3.8,3.7-7.2,6.6-10c2.8-2.9,6.2-5.2,10-6.8c3.7-1.6,7.8-2.4,11.8-2.4
		c7-0.2,13.8,2.2,19,6.8c38.5,34.1,88.2,52.9,139.8,53c90.8,0,119.7-48.4,119.7-87.1c0-60.6-61.8-77.2-129-95.4
		c-82.3-21.2-173.1-43.9-173.1-142.6c0-83.3,74.8-140,179.4-140c57.1-1.6,112.9,16.9,157.6,52.2c4.1,2.6,7.4,6.2,9.7,10.4
		c2.3,4.2,3.4,9,3.3,13.8c-0.2,8-3.5,15.6-9.2,21.2c-5.7,5.6-13.4,8.8-21.4,8.9c-6.7,0-13.2-2.4-18.3-6.8
		c-35.7-28.9-80.5-44.5-126.6-43.9c-65.7,0-109.2,32.5-109.2,80.2c0,50.7,58.8,65.8,123.8,83.3c83.3,22.3,177.9,47.7,177.9,153.6
		c0,73.4-50.4,148.4-187.8,148.4c-74.7,0-133.6-24.2-175.6-61.4c-3.3-3-6-6.6-7.9-10.7C1560.3,1092.8,1559.4,1088.4,1559.4,1084z"/>
	<path class="st0" d="M2358.5,819v315.7c-0.5,7.2-3.7,14-9,19s-12.3,7.7-19.6,7.7s-14.3-2.8-19.7-7.7c-5.3-5-8.5-11.7-9-19v-29.6
		c-14.3,19.5-32.9,35.4-54.5,46.5c-21.6,11-45.5,16.9-69.8,17.1c-96.2,0-164.2-72.7-164.2-191.5c0-116.6,67.5-192.3,164.2-192.3
		c24.5,0.1,48.6,6.1,70.2,17.4c21.6,11.3,40.2,27.7,54.1,47.7v-31c0.4-7.2,3.7-14,9-19s12.4-7.7,19.7-7.7s14.3,2.8,19.6,7.7
		C2354.8,805,2358,811.8,2358.5,819z M2301.2,1060.5V894.8c-12.5-17.9-29.2-32.6-48.6-42.9c-19.4-10.3-41-15.8-63-16.1
		c-74.1,0-118.3,60.5-118.3,141.5S2116,1118,2189.6,1118c21.8-0.1,43.2-5.4,62.6-15.4s36-24.4,48.5-42.1H2301.2z"/>
	<path class="st0" d="M2480.1,1134.7v-455c0.5-7.2,3.7-14,9-19s12.4-7.7,19.7-7.7s14.3,2.8,19.7,7.7c5.3,5,8.5,11.7,9,19v455
		c-0.5,7.2-3.7,14-9,19s-12.4,7.7-19.7,7.7s-14.3-2.8-19.7-7.7C2483.8,1148.8,2480.6,1142,2480.1,1134.7z"/>
	<path class="st0" d="M2984,819v315.7c-0.5,7.2-3.7,14-9,19s-12.3,7.7-19.6,7.7s-14.3-2.8-19.7-7.7c-5.3-5-8.5-11.7-9-19v-29.6
		c-14.3,19.5-33,35.5-54.6,46.5s-45.6,16.9-69.9,17.1c-96.1,0-164.1-72.7-164.1-191.5c0-116.6,67.5-192.3,164.1-192.3
		c24.5,0.1,48.6,6.1,70.3,17.4c21.7,11.3,40.3,27.7,54.2,47.7v-31c0.4-7.2,3.7-14,9-19s12.4-7.7,19.7-7.7s14.3,2.8,19.6,7.7
		C2980.3,805,2983.5,811.8,2984,819z M2926.7,1060.5V894.8c-12.4-17.8-29-32.4-48.2-42.7s-40.7-15.9-62.5-16.3
		c-73.9,0-118.3,60.5-118.3,141.5S2742,1118,2816,1118c21.7-0.2,43.1-5.5,62.4-15.5C2897.6,1092.5,2914.2,1078.1,2926.7,1060.5z"/>
</g>
</svg>
